<svg id="visual" viewBox="0 0 960 540" width="960" height="540" xmlns="http://www.w3.org/2000/svg" xmlns:xlink="http://www.w3.org/1999/xlink" version="1.1"><rect x="0" y="0" width="960" height="540" fill="#ffffff"></rect><path d="M0 139L64 139L64 184L128 184L128 166L192 166L192 178L256 178L256 145L320 145L320 169L384 169L384 147L448 147L448 160L512 160L512 182L576 182L576 172L640 172L640 130L704 130L704 150L768 150L768 147L832 147L832 147L896 147L896 139L960 139L960 126L960 0L960 0L896 0L896 0L832 0L832 0L768 0L768 0L704 0L704 0L640 0L640 0L576 0L576 0L512 0L512 0L448 0L448 0L384 0L384 0L320 0L320 0L256 0L256 0L192 0L192 0L128 0L128 0L64 0L64 0L0 0Z" fill="#3f008f"></path><path d="M0 126L64 126L64 118L128 118L128 125L192 125L192 77L256 77L256 126L320 126L320 78L384 78L384 113L448 113L448 80L512 80L512 119L576 119L576 123L640 123L640 82L704 82L704 84L768 84L768 94L832 94L832 108L896 108L896 112L960 112L960 130L960 0L960 0L896 0L896 0L832 0L832 0L768 0L768 0L704 0L704 0L640 0L640 0L576 0L576 0L512 0L512 0L448 0L448 0L384 0L384 0L320 0L320 0L256 0L256 0L192 0L192 0L128 0L128 0L64 0L64 0L0 0Z" fill="#3c07c4"></path><path d="M0 57L64 57L64 48L128 48L128 76L192 76L192 33L256 33L256 63L320 63L320 39L384 39L384 58L448 58L448 77L512 77L512 69L576 69L576 50L640 50L640 57L704 57L704 47L768 47L768 59L832 59L832 69L896 69L896 62L960 62L960 60L960 0L960 0L896 0L896 0L832 0L832 0L768 0L768 0L704 0L704 0L640 0L640 0L576 0L576 0L512 0L512 0L448 0L448 0L384 0L384 0L320 0L320 0L256 0L256 0L192 0L192 0L128 0L128 0L64 0L64 0L0 0Z" fill="#001aff"></path></svg>