<svg id="visual" viewBox="0 0 960 540" width="960" height="540" xmlns="http://www.w3.org/2000/svg" xmlns:xlink="http://www.w3.org/1999/xlink" version="1.1"><rect x="0" y="0" width="960" height="540" fill="#001220"></rect><path d="M0 173L22.8 178.3C45.7 183.7 91.3 194.3 137 202.2C182.7 210 228.3 215 274 211C319.7 207 365.3 194 411.2 193.7C457 193.3 503 205.7 548.8 207.7C594.7 209.7 640.3 201.3 686 197.8C731.7 194.3 777.3 195.7 823 196.3C868.7 197 914.3 197 937.2 197L960 197L960 0L937.2 0C914.3 0 868.7 0 823 0C777.3 0 731.7 0 686 0C640.3 0 594.7 0 548.8 0C503 0 457 0 411.2 0C365.3 0 319.7 0 274 0C228.3 0 182.7 0 137 0C91.3 0 45.7 0 22.8 0L0 0Z" fill="#fa7268"></path><path d="M0 156L22.8 152.8C45.7 149.7 91.3 143.3 137 138C182.7 132.7 228.3 128.3 274 127.2C319.7 126 365.3 128 411.2 127.7C457 127.3 503 124.7 548.8 133.7C594.7 142.7 640.3 163.3 686 161.5C731.7 159.7 777.3 135.3 823 124.3C868.7 113.3 914.3 115.7 937.2 116.8L960 118L960 0L937.2 0C914.3 0 868.7 0 823 0C777.3 0 731.7 0 686 0C640.3 0 594.7 0 548.8 0C503 0 457 0 411.2 0C365.3 0 319.7 0 274 0C228.3 0 182.7 0 137 0C91.3 0 45.7 0 22.8 0L0 0Z" fill="#ef5f67"></path><path d="M0 82L22.8 86.8C45.7 91.7 91.3 101.3 137 110C182.7 118.7 228.3 126.3 274 131.5C319.7 136.7 365.3 139.3 411.2 134.5C457 129.7 503 117.3 548.8 106.8C594.7 96.3 640.3 87.7 686 93.5C731.7 99.3 777.3 119.7 823 129.5C868.7 139.3 914.3 138.7 937.2 138.3L960 138L960 0L937.2 0C914.3 0 868.7 0 823 0C777.3 0 731.7 0 686 0C640.3 0 594.7 0 548.8 0C503 0 457 0 411.2 0C365.3 0 319.7 0 274 0C228.3 0 182.7 0 137 0C91.3 0 45.7 0 22.8 0L0 0Z" fill="#e34c67"></path><path d="M0 54L22.8 58.5C45.7 63 91.3 72 137 77C182.7 82 228.3 83 274 78.5C319.7 74 365.3 64 411.2 59C457 54 503 54 548.8 57.7C594.7 61.3 640.3 68.7 686 76C731.7 83.3 777.3 90.7 823 91.5C868.7 92.3 914.3 86.7 937.2 83.8L960 81L960 0L937.2 0C914.3 0 868.7 0 823 0C777.3 0 731.7 0 686 0C640.3 0 594.7 0 548.8 0C503 0 457 0 411.2 0C365.3 0 319.7 0 274 0C228.3 0 182.7 0 137 0C91.3 0 45.7 0 22.8 0L0 0Z" fill="#d53867"></path><path d="M0 27L22.8 28.2C45.7 29.3 91.3 31.7 137 35.3C182.7 39 228.3 44 274 44.8C319.7 45.7 365.3 42.3 411.2 42.7C457 43 503 47 548.8 51C594.7 55 640.3 59 686 57.8C731.7 56.7 777.3 50.3 823 49.3C868.7 48.3 914.3 52.7 937.2 54.8L960 57L960 0L937.2 0C914.3 0 868.7 0 823 0C777.3 0 731.7 0 686 0C640.3 0 594.7 0 548.8 0C503 0 457 0 411.2 0C365.3 0 319.7 0 274 0C228.3 0 182.7 0 137 0C91.3 0 45.7 0 22.8 0L0 0Z" fill="#c62368"></path></svg>