<svg id="visual" viewBox="0 0 900 600" width="900" height="600" xmlns="http://www.w3.org/2000/svg" xmlns:xlink="http://www.w3.org/1999/xlink" version="1.1"><rect x="0" y="0" width="900" height="600" fill="#ffffff"></rect><path d="M0 155L60 155L60 205L120 205L120 184L180 184L180 198L240 198L240 161L300 161L300 188L360 188L360 163L420 163L420 177L480 177L480 203L540 203L540 191L600 191L600 145L660 145L660 167L720 167L720 163L780 163L780 164L840 164L840 155L900 155L900 140L900 0L900 0L840 0L840 0L780 0L780 0L720 0L720 0L660 0L660 0L600 0L600 0L540 0L540 0L480 0L480 0L420 0L420 0L360 0L360 0L300 0L300 0L240 0L240 0L180 0L180 0L120 0L120 0L60 0L60 0L0 0Z" fill="#3f008f"></path><path d="M0 140L60 140L60 132L120 132L120 139L180 139L180 86L240 86L240 140L300 140L300 87L360 87L360 126L420 126L420 89L480 89L480 132L540 132L540 137L600 137L600 91L660 91L660 93L720 93L720 105L780 105L780 121L840 121L840 124L900 124L900 145L900 0L900 0L840 0L840 0L780 0L780 0L720 0L720 0L660 0L660 0L600 0L600 0L540 0L540 0L480 0L480 0L420 0L420 0L360 0L360 0L300 0L300 0L240 0L240 0L180 0L180 0L120 0L120 0L60 0L60 0L0 0Z" fill="#3c07c4"></path><path d="M0 63L60 63L60 54L120 54L120 85L180 85L180 37L240 37L240 71L300 71L300 43L360 43L360 64L420 64L420 86L480 86L480 76L540 76L540 56L600 56L600 64L660 64L660 52L720 52L720 66L780 66L780 77L840 77L840 69L900 69L900 67L900 0L900 0L840 0L840 0L780 0L780 0L720 0L720 0L660 0L660 0L600 0L600 0L540 0L540 0L480 0L480 0L420 0L420 0L360 0L360 0L300 0L300 0L240 0L240 0L180 0L180 0L120 0L120 0L60 0L60 0L0 0Z" fill="#001aff"></path></svg>